<mxfile host="app.diagrams.net" agent="Mozilla/5.0 (Macintosh; Intel Mac OS X 10_15_7) AppleWebKit/537.36 (KHTML, like Gecko) Chrome/127.0.0.0 Safari/537.36" version="24.7.6">
  <diagram name="第 1 页" id="egx2UDpE9agMcuBiwFIx">
    <mxGraphModel dx="4606" dy="776" grid="1" gridSize="10" guides="1" tooltips="1" connect="1" arrows="1" fold="1" page="1" pageScale="1" pageWidth="3300" pageHeight="4681" math="0" shadow="0">
      <root>
        <mxCell id="0" />
        <mxCell id="1" parent="0" />
        <mxCell id="vJv3wOpw-mGPv7PhF24Y-27" value="" style="rounded=1;whiteSpace=wrap;html=1;fillColor=#d5e8d4;strokeColor=#82b366;" parent="1" vertex="1">
          <mxGeometry x="400" y="220" width="570" height="330" as="geometry" />
        </mxCell>
        <mxCell id="vJv3wOpw-mGPv7PhF24Y-17" style="edgeStyle=orthogonalEdgeStyle;rounded=0;orthogonalLoop=1;jettySize=auto;html=1;exitX=1;exitY=0.5;exitDx=0;exitDy=0;" parent="1" source="vJv3wOpw-mGPv7PhF24Y-1" target="vJv3wOpw-mGPv7PhF24Y-14" edge="1">
          <mxGeometry relative="1" as="geometry" />
        </mxCell>
        <mxCell id="vJv3wOpw-mGPv7PhF24Y-1" value="noti feature transify" style="rounded=1;whiteSpace=wrap;html=1;fillColor=#fff2cc;strokeColor=#d6b656;" parent="1" vertex="1">
          <mxGeometry x="540" y="280" width="120" height="60" as="geometry" />
        </mxCell>
        <mxCell id="vJv3wOpw-mGPv7PhF24Y-18" style="edgeStyle=orthogonalEdgeStyle;rounded=0;orthogonalLoop=1;jettySize=auto;html=1;exitX=1;exitY=0.5;exitDx=0;exitDy=0;entryX=0;entryY=0.5;entryDx=0;entryDy=0;" parent="1" source="vJv3wOpw-mGPv7PhF24Y-2" target="vJv3wOpw-mGPv7PhF24Y-14" edge="1">
          <mxGeometry relative="1" as="geometry" />
        </mxCell>
        <mxCell id="vJv3wOpw-mGPv7PhF24Y-2" value="noti content transify" style="rounded=1;whiteSpace=wrap;html=1;fillColor=#fff2cc;strokeColor=#d6b656;" parent="1" vertex="1">
          <mxGeometry x="540" y="460" width="120" height="60" as="geometry" />
        </mxCell>
        <mxCell id="vJv3wOpw-mGPv7PhF24Y-4" style="edgeStyle=orthogonalEdgeStyle;rounded=0;orthogonalLoop=1;jettySize=auto;html=1;exitX=0.875;exitY=0.5;exitDx=0;exitDy=0;exitPerimeter=0;entryX=0;entryY=0.5;entryDx=0;entryDy=0;" parent="1" source="vJv3wOpw-mGPv7PhF24Y-21" target="vJv3wOpw-mGPv7PhF24Y-1" edge="1">
          <mxGeometry relative="1" as="geometry">
            <mxPoint x="395" y="400" as="sourcePoint" />
          </mxGeometry>
        </mxCell>
        <mxCell id="vJv3wOpw-mGPv7PhF24Y-6" value="feature trasify key" style="edgeLabel;html=1;align=center;verticalAlign=middle;resizable=0;points=[];" parent="vJv3wOpw-mGPv7PhF24Y-4" vertex="1" connectable="0">
          <mxGeometry x="0.1149" relative="1" as="geometry">
            <mxPoint as="offset" />
          </mxGeometry>
        </mxCell>
        <mxCell id="vJv3wOpw-mGPv7PhF24Y-5" style="edgeStyle=orthogonalEdgeStyle;rounded=0;orthogonalLoop=1;jettySize=auto;html=1;exitX=0.875;exitY=0.5;exitDx=0;exitDy=0;exitPerimeter=0;entryX=0;entryY=0.5;entryDx=0;entryDy=0;" parent="1" source="vJv3wOpw-mGPv7PhF24Y-21" target="vJv3wOpw-mGPv7PhF24Y-2" edge="1">
          <mxGeometry relative="1" as="geometry">
            <mxPoint x="395" y="400" as="sourcePoint" />
          </mxGeometry>
        </mxCell>
        <mxCell id="vJv3wOpw-mGPv7PhF24Y-7" value="content transify key" style="edgeLabel;html=1;align=center;verticalAlign=middle;resizable=0;points=[];" parent="vJv3wOpw-mGPv7PhF24Y-5" vertex="1" connectable="0">
          <mxGeometry x="0.0667" y="-1" relative="1" as="geometry">
            <mxPoint as="offset" />
          </mxGeometry>
        </mxCell>
        <mxCell id="vJv3wOpw-mGPv7PhF24Y-14" value="old transify" style="rounded=1;whiteSpace=wrap;html=1;fillColor=#fff2cc;strokeColor=#d6b656;" parent="1" vertex="1">
          <mxGeometry x="800" y="280" width="120" height="240" as="geometry" />
        </mxCell>
        <mxCell id="vJv3wOpw-mGPv7PhF24Y-19" value="fallback" style="text;html=1;align=center;verticalAlign=middle;resizable=0;points=[];autosize=1;strokeColor=none;fillColor=none;" parent="1" vertex="1">
          <mxGeometry x="730" y="370" width="60" height="30" as="geometry" />
        </mxCell>
        <mxCell id="vJv3wOpw-mGPv7PhF24Y-20" value="noti service" style="rounded=1;whiteSpace=wrap;html=1;fillColor=#dae8fc;strokeColor=#6c8ebf;" parent="1" vertex="1">
          <mxGeometry x="260" y="270" width="120" height="60" as="geometry" />
        </mxCell>
        <mxCell id="vJv3wOpw-mGPv7PhF24Y-21" value="transify key" style="ellipse;shape=cloud;whiteSpace=wrap;html=1;fillColor=#f8cecc;strokeColor=#b85450;" parent="1" vertex="1">
          <mxGeometry x="260" y="360" width="120" height="80" as="geometry" />
        </mxCell>
        <mxCell id="vJv3wOpw-mGPv7PhF24Y-26" style="edgeStyle=orthogonalEdgeStyle;rounded=0;orthogonalLoop=1;jettySize=auto;html=1;exitX=0.5;exitY=1;exitDx=0;exitDy=0;entryX=0.5;entryY=0.088;entryDx=0;entryDy=0;entryPerimeter=0;" parent="1" source="vJv3wOpw-mGPv7PhF24Y-20" target="vJv3wOpw-mGPv7PhF24Y-21" edge="1">
          <mxGeometry relative="1" as="geometry" />
        </mxCell>
        <mxCell id="vJv3wOpw-mGPv7PhF24Y-28" value="Transify Logic" style="text;html=1;align=center;verticalAlign=middle;resizable=0;points=[];autosize=1;strokeColor=none;fillColor=none;" parent="1" vertex="1">
          <mxGeometry x="635" y="220" width="100" height="30" as="geometry" />
        </mxCell>
        <mxCell id="iu7YOJcN_zlzfQFf-2uT-1" value="transify key list json file" style="shape=note;whiteSpace=wrap;html=1;backgroundOutline=1;darkOpacity=0.05;fillColor=#ffe6cc;strokeColor=#d79b00;" parent="1" vertex="1">
          <mxGeometry x="380" y="780" width="80" height="100" as="geometry" />
        </mxCell>
        <mxCell id="iu7YOJcN_zlzfQFf-2uT-12" style="edgeStyle=orthogonalEdgeStyle;rounded=0;orthogonalLoop=1;jettySize=auto;html=1;exitX=0;exitY=0.5;exitDx=0;exitDy=0;" parent="1" source="iu7YOJcN_zlzfQFf-2uT-3" edge="1">
          <mxGeometry relative="1" as="geometry">
            <mxPoint x="460" y="840" as="targetPoint" />
          </mxGeometry>
        </mxCell>
        <mxCell id="iu7YOJcN_zlzfQFf-2uT-13" value="read" style="edgeLabel;html=1;align=center;verticalAlign=middle;resizable=0;points=[];" parent="iu7YOJcN_zlzfQFf-2uT-12" vertex="1" connectable="0">
          <mxGeometry x="-0.0992" relative="1" as="geometry">
            <mxPoint as="offset" />
          </mxGeometry>
        </mxCell>
        <mxCell id="iu7YOJcN_zlzfQFf-2uT-15" style="edgeStyle=orthogonalEdgeStyle;rounded=0;orthogonalLoop=1;jettySize=auto;html=1;exitX=1;exitY=0.5;exitDx=0;exitDy=0;entryX=0;entryY=0.5;entryDx=0;entryDy=0;" parent="1" source="iu7YOJcN_zlzfQFf-2uT-3" target="iu7YOJcN_zlzfQFf-2uT-14" edge="1">
          <mxGeometry relative="1" as="geometry" />
        </mxCell>
        <mxCell id="iu7YOJcN_zlzfQFf-2uT-16" value="migrate" style="edgeLabel;html=1;align=center;verticalAlign=middle;resizable=0;points=[];" parent="iu7YOJcN_zlzfQFf-2uT-15" vertex="1" connectable="0">
          <mxGeometry x="-0.0526" y="1" relative="1" as="geometry">
            <mxPoint as="offset" />
          </mxGeometry>
        </mxCell>
        <mxCell id="iu7YOJcN_zlzfQFf-2uT-3" value="migrate script" style="rounded=1;whiteSpace=wrap;html=1;fillColor=#dae8fc;strokeColor=#6c8ebf;" parent="1" vertex="1">
          <mxGeometry x="540" y="810" width="120" height="60" as="geometry" />
        </mxCell>
        <mxCell id="iu7YOJcN_zlzfQFf-2uT-14" value="transify platform(new transify resource)" style="rounded=1;whiteSpace=wrap;html=1;fillColor=#dae8fc;strokeColor=#6c8ebf;" parent="1" vertex="1">
          <mxGeometry x="730" y="810" width="120" height="60" as="geometry" />
        </mxCell>
        <mxCell id="zJucwXNYndX93U_4XIdq-9" style="edgeStyle=orthogonalEdgeStyle;rounded=0;orthogonalLoop=1;jettySize=auto;html=1;exitX=0.5;exitY=1;exitDx=0;exitDy=0;exitPerimeter=0;" edge="1" parent="1" source="zJucwXNYndX93U_4XIdq-3" target="zJucwXNYndX93U_4XIdq-5">
          <mxGeometry relative="1" as="geometry" />
        </mxCell>
        <mxCell id="zJucwXNYndX93U_4XIdq-3" value="old transify resource" style="shape=cylinder3;whiteSpace=wrap;html=1;boundedLbl=1;backgroundOutline=1;size=15;fillColor=#dae8fc;strokeColor=#6c8ebf;" vertex="1" parent="1">
          <mxGeometry x="730" y="990" width="60" height="80" as="geometry" />
        </mxCell>
        <mxCell id="zJucwXNYndX93U_4XIdq-4" value="new transify resource" style="shape=cylinder3;whiteSpace=wrap;html=1;boundedLbl=1;backgroundOutline=1;size=15;fillColor=#dae8fc;strokeColor=#6c8ebf;" vertex="1" parent="1">
          <mxGeometry x="970" y="990" width="60" height="80" as="geometry" />
        </mxCell>
        <mxCell id="zJucwXNYndX93U_4XIdq-5" value="transify key" style="swimlane;fontStyle=0;childLayout=stackLayout;horizontal=1;startSize=30;horizontalStack=0;resizeParent=1;resizeParentMax=0;resizeLast=0;collapsible=1;marginBottom=0;whiteSpace=wrap;html=1;fillColor=#fff2cc;strokeColor=#d6b656;" vertex="1" parent="1">
          <mxGeometry x="690" y="1150" width="140" height="120" as="geometry" />
        </mxCell>
        <mxCell id="zJucwXNYndX93U_4XIdq-6" value="key1" style="text;strokeColor=#d6b656;fillColor=#fff2cc;align=left;verticalAlign=middle;spacingLeft=4;spacingRight=4;overflow=hidden;points=[[0,0.5],[1,0.5]];portConstraint=eastwest;rotatable=0;whiteSpace=wrap;html=1;" vertex="1" parent="zJucwXNYndX93U_4XIdq-5">
          <mxGeometry y="30" width="140" height="30" as="geometry" />
        </mxCell>
        <mxCell id="zJucwXNYndX93U_4XIdq-7" value="key2" style="text;strokeColor=#d6b656;fillColor=#fff2cc;align=left;verticalAlign=middle;spacingLeft=4;spacingRight=4;overflow=hidden;points=[[0,0.5],[1,0.5]];portConstraint=eastwest;rotatable=0;whiteSpace=wrap;html=1;" vertex="1" parent="zJucwXNYndX93U_4XIdq-5">
          <mxGeometry y="60" width="140" height="30" as="geometry" />
        </mxCell>
        <mxCell id="zJucwXNYndX93U_4XIdq-8" value="key3" style="text;strokeColor=#d6b656;fillColor=#fff2cc;align=left;verticalAlign=middle;spacingLeft=4;spacingRight=4;overflow=hidden;points=[[0,0.5],[1,0.5]];portConstraint=eastwest;rotatable=0;whiteSpace=wrap;html=1;" vertex="1" parent="zJucwXNYndX93U_4XIdq-5">
          <mxGeometry y="90" width="140" height="30" as="geometry" />
        </mxCell>
        <mxCell id="zJucwXNYndX93U_4XIdq-10" style="edgeStyle=orthogonalEdgeStyle;rounded=0;orthogonalLoop=1;jettySize=auto;html=1;exitX=0.5;exitY=0;exitDx=0;exitDy=0;entryX=0.5;entryY=1;entryDx=0;entryDy=0;entryPerimeter=0;" edge="1" parent="1" source="zJucwXNYndX93U_4XIdq-11" target="zJucwXNYndX93U_4XIdq-4">
          <mxGeometry relative="1" as="geometry" />
        </mxCell>
        <mxCell id="zJucwXNYndX93U_4XIdq-12" value="" style="edgeStyle=orthogonalEdgeStyle;rounded=0;orthogonalLoop=1;jettySize=auto;html=1;exitX=1;exitY=0.5;exitDx=0;exitDy=0;entryX=0.5;entryY=1;entryDx=0;entryDy=0;entryPerimeter=0;" edge="1" parent="1" source="zJucwXNYndX93U_4XIdq-7" target="zJucwXNYndX93U_4XIdq-11">
          <mxGeometry relative="1" as="geometry">
            <mxPoint x="830" y="1180" as="sourcePoint" />
            <mxPoint x="1000" y="1070" as="targetPoint" />
          </mxGeometry>
        </mxCell>
        <mxCell id="zJucwXNYndX93U_4XIdq-11" value="duplicate API" style="rhombus;whiteSpace=wrap;html=1;fillColor=#d5e8d4;strokeColor=#82b366;" vertex="1" parent="1">
          <mxGeometry x="960" y="1110" width="80" height="80" as="geometry" />
        </mxCell>
        <mxCell id="zJucwXNYndX93U_4XIdq-13" value="get all transify key" style="text;html=1;align=center;verticalAlign=middle;resizable=0;points=[];autosize=1;strokeColor=none;fillColor=none;" vertex="1" parent="1">
          <mxGeometry x="640" y="1090" width="120" height="30" as="geometry" />
        </mxCell>
        <mxCell id="zJucwXNYndX93U_4XIdq-14" value="migrate all transify key" style="text;html=1;align=center;verticalAlign=middle;resizable=0;points=[];autosize=1;strokeColor=none;fillColor=none;" vertex="1" parent="1">
          <mxGeometry x="850" y="1230" width="140" height="30" as="geometry" />
        </mxCell>
        <mxCell id="zJucwXNYndX93U_4XIdq-16" value="" style="ellipse;whiteSpace=wrap;html=1;" vertex="1" parent="1">
          <mxGeometry x="-380" y="990" width="120" height="80" as="geometry" />
        </mxCell>
        <mxCell id="zJucwXNYndX93U_4XIdq-17" value="get all transify key" style="text;html=1;align=center;verticalAlign=middle;resizable=0;points=[];autosize=1;strokeColor=none;fillColor=none;" vertex="1" parent="1">
          <mxGeometry x="660" y="1110" width="120" height="30" as="geometry" />
        </mxCell>
        <mxCell id="zJucwXNYndX93U_4XIdq-18" value="" style="ellipse;whiteSpace=wrap;html=1;" vertex="1" parent="1">
          <mxGeometry x="860" y="1730" width="120" height="80" as="geometry" />
        </mxCell>
      </root>
    </mxGraphModel>
  </diagram>
</mxfile>
